<svg width="655" height="185" viewBox="0 0 655 185" fill="none" xmlns="http://www.w3.org/2000/svg">
<path d="M568.333 81.8701V71.51L586.463 42.35C589.203 37.92 591.103 34.11 592.153 30.92C593.203 27.73 593.733 24.43 593.733 21.01V19.38C593.733 14.01 591.463 11.33 586.923 11.33C584.633 11.33 582.923 12.09 581.803 13.61C580.673 15.13 580.113 17.56 580.113 20.9V24.9L568.343 24.34V18.82C568.343 12.89 570.003 8.27003 573.323 4.97003C576.643 1.67003 581.253 0.0100098 587.143 0.0100098C593.033 0.0100098 597.643 1.63 600.963 4.88C604.283 8.13 605.943 12.66 605.943 18.47V21.46C605.943 25.44 605.223 29.42 603.773 33.39C602.323 37.37 599.713 42.42 595.923 48.54L582.303 70.33H605.943V81.8701H568.333Z" fill="url(#paint0_linear_136_35)"/>
<path d="M614.673 62.61V20.38C614.673 14.04 616.423 9.05005 619.933 5.43005C623.443 1.81005 628.253 0 634.373 0C640.493 0 645.313 1.81005 648.843 5.43005C652.373 9.05005 654.133 14.04 654.133 20.38V62.61C654.133 68.96 652.363 73.94 648.843 77.56C645.313 81.18 640.493 82.9901 634.373 82.9901C628.253 82.9901 623.443 81.18 619.933 77.56C616.423 73.94 614.673 68.95 614.673 62.61ZM626.883 62.5C626.883 65.5 627.533 67.7901 628.823 69.3701C630.123 70.9501 631.963 71.7401 634.373 71.7401C636.783 71.7401 638.683 70.94 639.973 69.35C641.273 67.76 641.913 65.47 641.913 62.51V20.51C641.913 17.55 641.263 15.28 639.973 13.7C638.683 12.12 636.813 11.33 634.373 11.33C631.933 11.33 630.073 12.12 628.793 13.7C627.523 15.28 626.883 17.55 626.883 20.51V62.51V62.5Z" fill="url(#paint1_linear_136_35)"/>
<path d="M570.523 178.26L570.173 167.91L587.293 138.15C589.883 133.63 591.643 129.75 592.593 126.53C593.533 123.3 593.953 119.99 593.833 116.57L593.783 114.94C593.603 109.58 591.233 106.97 586.693 107.13C584.403 107.21 582.723 108.03 581.653 109.58C580.583 111.14 580.103 113.59 580.213 116.93L580.353 120.92L568.573 120.76L568.383 115.24C568.183 109.32 569.683 104.64 572.893 101.23C576.093 97.82 580.643 96.0101 586.533 95.8001C592.423 95.6001 597.083 97.06 600.513 100.2C603.943 103.33 605.753 107.8 605.953 113.62L606.053 116.6C606.193 120.58 605.603 124.58 604.303 128.6C602.993 132.62 600.553 137.76 596.973 144.01L584.103 166.25L607.733 165.44L608.133 176.97L570.553 178.26H570.523Z" fill="url(#paint2_linear_136_35)"/>
<path d="M614.743 158.5L614.633 155.4L626.373 154.43L626.453 156.63C626.673 163.01 629.243 166.11 634.173 165.94C636.683 165.85 638.543 164.98 639.753 163.33C640.973 161.67 641.533 159.34 641.423 156.34L640.953 142.72C640.853 139.72 640.123 137.43 638.773 135.86C637.433 134.29 635.523 133.55 633.053 133.63C630.963 133.7 629.313 134.35 628.093 135.57C626.883 136.8 626.203 138.5 626.053 140.68L625.943 142.32L614.613 142.26L615.543 95.9301L648.543 94.8L648.943 106.33L626.663 107.09L626.253 126.14H626.483C628.513 123.7 631.683 122.41 635.993 122.26C641.093 122.09 645.163 123.68 648.223 127.05C651.283 130.42 652.923 135.23 653.133 141.5L653.653 156.69C653.863 162.92 652.313 167.83 649.003 171.44C645.693 175.04 640.983 176.95 634.883 177.16C628.783 177.37 623.953 175.83 620.393 172.56C616.833 169.29 614.943 164.59 614.733 158.47L614.743 158.5Z" fill="url(#paint3_linear_136_35)"/>
<path d="M323.743 180.91C319.183 171.52 313.353 162.53 310.293 152.68C299.373 117.56 289.253 82.1801 279.133 46.8201C276.203 36.6001 271.273 27.6701 264.323 19.8101C256.743 11.2201 247.443 6.19017 235.593 6.73017C230.593 6.96017 225.573 6.81014 220.563 6.82014C213.033 6.82014 205.513 6.82014 197.903 6.82014C201.353 14.8201 204.813 21.5101 207.203 28.5701C220.583 67.9801 233.563 107.52 246.983 146.91C252.583 163.35 261.603 177.97 280.223 180.52C294.713 182.51 309.693 180.92 323.753 180.92L323.743 180.91Z" fill="white"/>
<path d="M0.0133333 75.9101C0.0133333 94.8801 -0.0166569 113.84 0.0233431 132.81C0.0433431 141.64 2.7233 144.3 11.6033 144.43C15.3633 144.49 19.1233 144.49 22.8833 144.42C30.3233 144.27 33.2333 141.34 33.2533 133.89C33.2933 122.26 33.1934 110.63 33.3034 99C33.3634 92.53 36.4333 89.5 42.9033 89.38C49.7033 89.26 56.5033 89.4001 63.3133 89.3501C72.1133 89.2901 74.8334 86.54 74.9134 77.75C74.9234 76.5 74.9334 75.2401 74.9134 73.9901C74.7634 66.2701 71.7834 63.2401 64.1834 63.1601C59.7134 63.1101 55.2333 63.1601 50.7533 63.1601C33.7833 63.1601 32.9134 62.27 33.2834 45.25C33.4434 37.71 36.1433 35.1 43.8133 35.06C55.4433 35 67.0833 35.1 78.7133 34.82C86.1233 34.65 88.8333 31.5301 88.9633 24.0401C88.9833 22.6101 88.9833 21.18 88.9633 19.75C88.8933 10.66 86.2133 7.92006 77.0233 7.90006C55.1833 7.85006 33.3433 7.86006 11.5033 7.90006C2.72332 7.92006 0.0233333 10.69 0.0133333 19.57C-0.0166667 38.36 0.0133333 57.1501 0.0133333 75.9301V75.9101Z" fill="white"/>
<path d="M151.323 183.37C152.583 183.88 153.044 184.22 153.504 184.22C177.824 184.33 202.144 184.44 226.464 184.38C227.964 184.38 229.924 183.36 230.864 182.17C236.324 175.34 241.534 168.31 246.164 162.23C238.584 139.51 231.274 117.59 223.654 94.77C199.264 124.63 175.413 153.84 151.313 183.36L151.323 183.37Z" fill="white"/>
<path d="M366.884 4.32011C365.674 3.89011 365.344 3.67015 365.004 3.67015C343.714 3.64015 322.424 3.57014 301.144 3.72014C299.484 3.73014 297.354 4.82015 296.244 6.11015C290.634 12.6002 285.204 19.2601 279.924 26.0201C279.044 27.1501 278.574 29.2902 278.994 30.6202C282.604 42.1802 286.573 53.6202 290.203 65.1702C293.063 74.2802 295.583 83.4901 298.563 93.7201C321.713 63.4301 344.134 34.1001 366.884 4.33012V4.32011Z" fill="white"/>
<path d="M152.763 101.47C145.063 101.47 137.373 101.49 129.673 101.47C124.763 101.45 121.293 103.48 120.323 108.49C119.383 113.35 122.293 116.22 126.223 118.22C133.663 122.01 142.253 120.28 148.503 114.67C150.833 112.58 154.233 111.18 157.353 110.62C161.163 109.94 165.203 110.38 169.133 110.51C173.083 110.64 177.283 111.64 178.133 115.81C178.753 118.89 178.113 123.04 176.403 125.63C170.023 135.29 160.643 141.11 149.423 143.68C108.973 152.93 77.9232 121.3 87.2832 80.4901C93.0032 55.5301 111.963 41.9201 139.673 42.8701C163.813 43.7001 181.633 59.7101 185.333 83.9901C185.703 86.4501 185.713 88.9801 185.713 91.4801C185.733 98.0701 182.583 101.3 175.853 101.39C168.163 101.49 160.463 101.41 152.763 101.41V101.47ZM135.503 84.3601C141.483 84.4801 145.573 80.9501 145.573 75.6701C145.573 70.8901 141.753 67.5201 136.253 67.4301C130.193 67.3301 126.563 70.2701 126.323 75.4801C126.073 80.7101 129.733 84.2501 135.503 84.3601Z" fill="white"/>
<path d="M0.0132351 75.9101C0.0132351 57.1201 -0.00676492 38.3301 0.0132351 19.5501C0.0232351 10.6701 2.72323 7.90004 11.5032 7.88004C33.3432 7.84004 55.1832 7.83004 77.0232 7.88004C86.2132 7.90004 88.8932 10.6501 88.9632 19.7301C88.9732 21.1601 88.9832 22.5901 88.9632 24.0201C88.8332 31.5101 86.1232 34.6201 78.7132 34.8001C67.0832 35.0701 55.4432 34.9701 43.8132 35.0401C36.1432 35.0801 33.4533 37.7001 33.2833 45.2301C32.9133 62.2601 33.7732 63.1401 50.7532 63.1401C55.2332 63.1401 59.7033 63.1001 64.1833 63.1401C71.7833 63.2201 74.7533 66.2501 74.9133 73.9701C74.9433 75.2201 74.9333 76.4801 74.9133 77.7301C74.8333 86.5201 72.1132 89.2701 63.3132 89.3301C56.5132 89.3801 49.7032 89.2401 42.9032 89.3601C36.4332 89.4701 33.3633 92.5001 33.3033 98.9801C33.1833 110.61 33.3032 122.24 33.2532 133.87C33.2232 141.32 30.3232 144.25 22.8832 144.4C19.1232 144.48 15.3632 144.47 11.6032 144.41C2.7332 144.27 0.0432448 141.62 0.0232448 132.79C-0.0167552 113.82 0.0132351 94.8601 0.0132351 75.8901V75.9101Z" fill="white"/>
<path d="M323.744 180.91C309.684 180.91 294.704 182.5 280.214 180.51C261.604 177.96 252.574 163.34 246.974 146.9C233.564 107.51 220.573 67.9701 207.193 28.5601C204.793 21.5001 201.344 14.8101 197.894 6.81013C205.504 6.81013 213.024 6.81013 220.554 6.81013C225.564 6.81013 230.583 6.95016 235.583 6.72016C247.433 6.18016 256.733 11.2102 264.313 19.8002C271.253 27.6602 276.194 36.5901 279.124 46.8101C289.254 82.1701 299.364 117.55 310.284 152.67C313.344 162.52 319.174 171.51 323.734 180.9L323.744 180.91Z" fill="white"/>
<path d="M151.323 183.37C175.423 153.85 199.273 124.64 223.663 94.7803C231.283 117.6 238.593 139.53 246.173 162.24C241.543 168.32 236.333 175.35 230.873 182.18C229.923 183.36 227.963 184.38 226.473 184.39C202.153 184.45 177.833 184.33 153.513 184.23C153.053 184.23 152.593 183.88 151.333 183.38L151.323 183.37Z" fill="white"/>
<path d="M366.884 4.32012C344.134 34.0901 321.713 63.4201 298.563 93.7101C295.583 83.4901 293.063 74.2701 290.203 65.1601C286.573 53.6101 282.604 42.1702 278.994 30.6102C278.574 29.2702 279.044 27.1301 279.924 26.0101C285.204 19.2501 290.634 12.5902 296.244 6.10015C297.354 4.82015 299.474 3.72014 301.144 3.71014C322.434 3.57014 343.724 3.63015 365.004 3.66015C365.334 3.66015 365.664 3.88011 366.884 4.31011V4.32012Z" fill="white"/>
<path d="M335.793 94.5401C336.093 97.9201 336.153 101.34 336.743 104.67C342.053 134.48 369.723 152.08 400.253 145.25C414.283 142.11 425.133 134.69 432.133 122C435.933 115.12 433.233 110.3 425.513 110.06C421.763 109.94 417.903 109.52 414.273 110.21C411.393 110.76 408.003 112.15 406.213 114.3C399.903 121.88 391.943 124.25 382.703 122.7C373.473 121.15 367.253 115.54 364.133 106.75C361.103 98.1901 361.143 89.5101 364.293 81.0001C370.923 63.0801 393.773 59.3101 406.103 73.8901C407.683 75.7601 410.283 77.5501 412.603 77.8501C417.353 78.4701 422.253 78.3001 427.063 78.0101C432.583 77.6801 435.483 73.1101 433.013 68.1601C430.973 64.0601 428.333 60.0701 425.233 56.7001C411.273 41.5601 386.923 37.1701 366.163 45.7201C347.113 53.5701 335.463 72.3701 335.793 94.5301V94.5401Z" fill="white"/>
<path d="M546.893 94.3602C546.693 124.26 524.003 146.96 494.583 146.71C464.523 146.45 441.153 123.3 441.563 94.1802C441.993 63.9102 464.513 41.3602 494.233 41.4402C524.863 41.5202 547.093 63.8702 546.893 94.3602ZM520.773 93.8202C520.613 82.2402 516.473 73.4302 508.993 68.7302C496.293 60.7502 478.283 65.0802 471.613 77.7202C463.333 93.4302 468.954 114.82 482.904 120.69C502.814 129.06 521.083 116.09 520.763 93.8102L520.773 93.8202Z" fill="white"/>
<path d="M335.793 94.5401C335.463 72.3901 347.113 53.5801 366.163 45.7301C386.913 37.1801 411.273 41.5701 425.233 56.7101C428.333 60.0801 430.973 64.0601 433.013 68.1701C435.483 73.1201 432.573 77.6901 427.063 78.0201C422.253 78.3001 417.353 78.4801 412.603 77.8601C410.283 77.5501 407.683 75.7701 406.103 73.9001C393.773 59.3301 370.923 63.1001 364.293 81.0101C361.143 89.5201 361.103 98.2001 364.133 106.76C367.253 115.56 373.473 121.16 382.703 122.71C391.943 124.26 399.903 121.89 406.213 114.31C408.013 112.16 411.393 110.77 414.273 110.22C417.893 109.53 421.753 109.95 425.513 110.07C433.233 110.31 435.933 115.13 432.133 122.01C425.133 134.69 414.283 142.11 400.253 145.26C369.733 152.09 342.063 134.49 336.743 104.68C336.153 101.35 336.093 97.9301 335.793 94.5501V94.5401Z" fill="white"/>
<defs>
<linearGradient id="paint0_linear_136_35" x1="683.663" y1="235.53" x2="520.873" y2="-81.8199" gradientUnits="userSpaceOnUse">
<stop stop-color="#7756A3"/>
<stop offset="0.13" stop-color="#8755A2"/>
<stop offset="0.4" stop-color="#B2549F"/>
<stop offset="0.55" stop-color="#CD549E"/>
<stop offset="1" stop-color="#F18652"/>
</linearGradient>
<linearGradient id="paint1_linear_136_35" x1="723.463" y1="215.12" x2="560.662" y2="-102.23" gradientUnits="userSpaceOnUse">
<stop stop-color="#7756A3"/>
<stop offset="0.13" stop-color="#8755A2"/>
<stop offset="0.4" stop-color="#B2549F"/>
<stop offset="0.55" stop-color="#CD549E"/>
<stop offset="1" stop-color="#F18652"/>
</linearGradient>
<linearGradient id="paint2_linear_136_35" x1="645.493" y1="255.11" x2="482.703" y2="-62.2299" gradientUnits="userSpaceOnUse">
<stop stop-color="#7756A3"/>
<stop offset="0.13" stop-color="#8755A2"/>
<stop offset="0.4" stop-color="#B2549F"/>
<stop offset="0.55" stop-color="#CD549E"/>
<stop offset="1" stop-color="#F18652"/>
</linearGradient>
<linearGradient id="paint3_linear_136_35" x1="685.643" y1="234.52" x2="522.853" y2="-82.8301" gradientUnits="userSpaceOnUse">
<stop stop-color="#7756A3"/>
<stop offset="0.13" stop-color="#8755A2"/>
<stop offset="0.4" stop-color="#B2549F"/>
<stop offset="0.55" stop-color="#CD549E"/>
<stop offset="1" stop-color="#F18652"/>
</linearGradient>
</defs>
</svg>
